{
    "asset" : {
        "generator" : "Khronos glTF Blender I/O v3.3.27",
        "version" : "2.0"
    },
    "extensionsUsed" : [
        "KHR_materials_specular",
        "KHR_materials_ior"
    ],
    "scene" : 0,
    "scenes" : [
        {
            "name" : "Scene",
            "nodes" : [
                0,
                1
            ]
        }
    ],
    "nodes" : [
        {
            "mesh" : 0,
            "name" : "TQ1_ARD-node"
        },
        {
            "mesh" : 1,
            "name" : "TQ2_ARD-node"
        }
    ],
    "materials" : [
        {
            "doubleSided" : true,
            "extensions" : {
                "KHR_materials_specular" : {
                    "specularColorFactor" : [
                        0,
                        0,
                        0
                    ]
                },
                "KHR_materials_ior" : {
                    "ior" : 0
                }
            },
            "name" : "TQ1_ARD_front",
            "pbrMetallicRoughness" : {
                "baseColorTexture" : {
                    "index" : 0
                },
                "metallicFactor" : 0,
                "roughnessFactor" : 0.5
            }
        },
        {
            "doubleSided" : true,
            "extensions" : {
                "KHR_materials_specular" : {
                    "specularColorFactor" : [
                        0,
                        0,
                        0
                    ]
                },
                "KHR_materials_ior" : {
                    "ior" : 0
                }
            },
            "name" : "TQ1_ARD_back",
            "pbrMetallicRoughness" : {
                "baseColorFactor" : [
                    0.996078372001648,
                    0.9019607901573181,
                    0.6627451181411743,
                    1
                ],
                "metallicFactor" : 0,
                "roughnessFactor" : 0.5
            }
        },
        {
            "doubleSided" : true,
            "extensions" : {
                "KHR_materials_specular" : {
                    "specularColorFactor" : [
                        0,
                        0,
                        0
                    ]
                },
                "KHR_materials_ior" : {
                    "ior" : 0
                }
            },
            "name" : "TQ1_ARD_edge",
            "pbrMetallicRoughness" : {
                "baseColorTexture" : {
                    "index" : 1
                },
                "metallicFactor" : 0,
                "roughnessFactor" : 0.5
            }
        },
        {
            "doubleSided" : true,
            "extensions" : {
                "KHR_materials_specular" : {
                    "specularColorFactor" : [
                        0,
                        0,
                        0
                    ]
                },
                "KHR_materials_ior" : {
                    "ior" : 0
                }
            },
            "name" : "TQ2_ARD_front",
            "pbrMetallicRoughness" : {
                "baseColorTexture" : {
                    "index" : 2
                },
                "metallicFactor" : 0,
                "roughnessFactor" : 0.5
            }
        },
        {
            "doubleSided" : true,
            "extensions" : {
                "KHR_materials_specular" : {
                    "specularColorFactor" : [
                        0,
                        0,
                        0
                    ]
                },
                "KHR_materials_ior" : {
                    "ior" : 0
                }
            },
            "name" : "TQ2_ARD_back",
            "pbrMetallicRoughness" : {
                "baseColorFactor" : [
                    0.996078372001648,
                    0.9019607901573181,
                    0.6627451181411743,
                    1
                ],
                "metallicFactor" : 0,
                "roughnessFactor" : 0.5
            }
        },
        {
            "doubleSided" : true,
            "extensions" : {
                "KHR_materials_specular" : {
                    "specularColorFactor" : [
                        0,
                        0,
                        0
                    ]
                },
                "KHR_materials_ior" : {
                    "ior" : 0
                }
            },
            "name" : "TQ2_ARD_edge",
            "pbrMetallicRoughness" : {
                "baseColorTexture" : {
                    "index" : 3
                },
                "metallicFactor" : 0,
                "roughnessFactor" : 0.5
            }
        }
    ],
    "meshes" : [
        {
            "name" : "TQ1_ARD-geom",
            "primitives" : [
                {
                    "attributes" : {
                        "POSITION" : 0,
                        "NORMAL" : 1,
                        "TEXCOORD_0" : 2
                    },
                    "indices" : 3,
                    "material" : 0
                },
                {
                    "attributes" : {
                        "POSITION" : 4,
                        "NORMAL" : 5,
                        "TEXCOORD_0" : 6
                    },
                    "indices" : 7,
                    "material" : 1
                },
                {
                    "attributes" : {
                        "POSITION" : 8,
                        "NORMAL" : 9,
                        "TEXCOORD_0" : 10
                    },
                    "indices" : 11,
                    "material" : 2
                }
            ]
        },
        {
            "name" : "TQ2_ARD-geom",
            "primitives" : [
                {
                    "attributes" : {
                        "POSITION" : 12,
                        "NORMAL" : 13,
                        "TEXCOORD_0" : 14
                    },
                    "indices" : 15,
                    "material" : 3
                },
                {
                    "attributes" : {
                        "POSITION" : 16,
                        "NORMAL" : 17,
                        "TEXCOORD_0" : 18
                    },
                    "indices" : 19,
                    "material" : 4
                },
                {
                    "attributes" : {
                        "POSITION" : 20,
                        "NORMAL" : 21,
                        "TEXCOORD_0" : 22
                    },
                    "indices" : 23,
                    "material" : 5
                }
            ]
        }
    ],
    "textures" : [
        {
            "sampler" : 0,
            "source" : 0
        },
        {
            "sampler" : 0,
            "source" : 1
        },
        {
            "sampler" : 0,
            "source" : 2
        },
        {
            "sampler" : 0,
            "source" : 3
        }
    ],
    "images" : [
        {
            "bufferView" : 4,
            "mimeType" : "image/jpeg",
            "name" : "1"
        },
        {
            "bufferView" : 13,
            "mimeType" : "image/png",
            "name" : "TQ1_ARD-I1"
        },
        {
            "bufferView" : 18,
            "mimeType" : "image/jpeg",
            "name" : "2"
        },
        {
            "bufferView" : 27,
            "mimeType" : "image/png",
            "name" : "TQ2_ARD-I1"
        }
    ],
    "accessors" : [
        {
            "bufferView" : 0,
            "componentType" : 5126,
            "count" : 607,
            "max" : [
                -0.08018872141838074,
                0.12818677723407745,
                0.3500654697418213
            ],
            "min" : [
                -0.4174725413322449,
                -0.1359701007604599,
                -0.06521373987197876
            ],
            "type" : "VEC3"
        },
        {
            "bufferView" : 1,
            "componentType" : 5126,
            "count" : 607,
            "type" : "VEC3"
        },
        {
            "bufferView" : 2,
            "componentType" : 5126,
            "count" : 607,
            "type" : "VEC2"
        },
        {
            "bufferView" : 3,
            "componentType" : 5123,
            "count" : 1959,
            "type" : "SCALAR"
        },
        {
            "bufferView" : 5,
            "componentType" : 5126,
            "count" : 830,
            "max" : [
                -0.08227786421775818,
                0.12421859800815582,
                0.34798020124435425
            ],
            "min" : [
                -0.41538724303245544,
                -0.13381022214889526,
                -0.06312856078147888
            ],
            "type" : "VEC3"
        },
        {
            "bufferView" : 6,
            "componentType" : 5126,
            "count" : 830,
            "type" : "VEC3"
        },
        {
            "bufferView" : 7,
            "componentType" : 5126,
            "count" : 830,
            "type" : "VEC2"
        },
        {
            "bufferView" : 8,
            "componentType" : 5123,
            "count" : 1959,
            "type" : "SCALAR"
        },
        {
            "bufferView" : 9,
            "componentType" : 5126,
            "count" : 712,
            "max" : [
                -0.08019253611564636,
                0.12818677723407745,
                0.3489263355731964
            ],
            "min" : [
                -0.4174705445766449,
                -0.13595281541347504,
                -0.06407870352268219
            ],
            "type" : "VEC3"
        },
        {
            "bufferView" : 10,
            "componentType" : 5126,
            "count" : 712,
            "type" : "VEC3"
        },
        {
            "bufferView" : 11,
            "componentType" : 5126,
            "count" : 712,
            "type" : "VEC2"
        },
        {
            "bufferView" : 12,
            "componentType" : 5123,
            "count" : 1158,
            "type" : "SCALAR"
        },
        {
            "bufferView" : 14,
            "componentType" : 5126,
            "count" : 1186,
            "max" : [
                0.25957798957824707,
                0.14222599565982819,
                -0.0003385096788406372
            ],
            "min" : [
                0.02639886736869812,
                -0.13596998155117035,
                -0.3375132083892822
            ],
            "type" : "VEC3"
        },
        {
            "bufferView" : 15,
            "componentType" : 5126,
            "count" : 1186,
            "type" : "VEC3"
        },
        {
            "bufferView" : 16,
            "componentType" : 5126,
            "count" : 1186,
            "type" : "VEC2"
        },
        {
            "bufferView" : 17,
            "componentType" : 5123,
            "count" : 2523,
            "type" : "SCALAR"
        },
        {
            "bufferView" : 19,
            "componentType" : 5126,
            "count" : 956,
            "max" : [
                0.25767531991004944,
                0.13905145227909088,
                -0.0022420138120651245
            ],
            "min" : [
                0.028254956007003784,
                -0.13407272100448608,
                -0.3356601297855377
            ],
            "type" : "VEC3"
        },
        {
            "bufferView" : 20,
            "componentType" : 5126,
            "count" : 956,
            "type" : "VEC3"
        },
        {
            "bufferView" : 21,
            "componentType" : 5126,
            "count" : 956,
            "type" : "VEC2"
        },
        {
            "bufferView" : 22,
            "componentType" : 5123,
            "count" : 2523,
            "type" : "SCALAR"
        },
        {
            "bufferView" : 23,
            "componentType" : 5126,
            "count" : 592,
            "max" : [
                0.25957798957824707,
                0.14222599565982819,
                -0.0013743191957473755
            ],
            "min" : [
                0.02639886736869812,
                -0.13596998155117035,
                -0.3364775478839874
            ],
            "type" : "VEC3"
        },
        {
            "bufferView" : 24,
            "componentType" : 5126,
            "count" : 592,
            "type" : "VEC3"
        },
        {
            "bufferView" : 25,
            "componentType" : 5126,
            "count" : 592,
            "type" : "VEC2"
        },
        {
            "bufferView" : 26,
            "componentType" : 5123,
            "count" : 1098,
            "type" : "SCALAR"
        }
    ],
    "bufferViews" : [
        {
            "buffer" : 0,
            "byteLength" : 7284,
            "byteOffset" : 0,
            "target" : 34962
        },
        {
            "buffer" : 0,
            "byteLength" : 7284,
            "byteOffset" : 7284,
            "target" : 34962
        },
        {
            "buffer" : 0,
            "byteLength" : 4856,
            "byteOffset" : 14568,
            "target" : 34962
        },
        {
            "buffer" : 0,
            "byteLength" : 3918,
            "byteOffset" : 19424,
            "target" : 34963
        },
        {
            "buffer" : 0,
            "byteLength" : 285420,
            "byteOffset" : 23344
        },
        {
            "buffer" : 0,
            "byteLength" : 9960,
            "byteOffset" : 308764,
            "target" : 34962
        },
        {
            "buffer" : 0,
            "byteLength" : 9960,
            "byteOffset" : 318724,
            "target" : 34962
        },
        {
            "buffer" : 0,
            "byteLength" : 6640,
            "byteOffset" : 328684,
            "target" : 34962
        },
        {
            "buffer" : 0,
            "byteLength" : 3918,
            "byteOffset" : 335324,
            "target" : 34963
        },
        {
            "buffer" : 0,
            "byteLength" : 8544,
            "byteOffset" : 339244,
            "target" : 34962
        },
        {
            "buffer" : 0,
            "byteLength" : 8544,
            "byteOffset" : 347788,
            "target" : 34962
        },
        {
            "buffer" : 0,
            "byteLength" : 5696,
            "byteOffset" : 356332,
            "target" : 34962
        },
        {
            "buffer" : 0,
            "byteLength" : 2316,
            "byteOffset" : 362028,
            "target" : 34963
        },
        {
            "buffer" : 0,
            "byteLength" : 710,
            "byteOffset" : 364344
        },
        {
            "buffer" : 0,
            "byteLength" : 14232,
            "byteOffset" : 365056,
            "target" : 34962
        },
        {
            "buffer" : 0,
            "byteLength" : 14232,
            "byteOffset" : 379288,
            "target" : 34962
        },
        {
            "buffer" : 0,
            "byteLength" : 9488,
            "byteOffset" : 393520,
            "target" : 34962
        },
        {
            "buffer" : 0,
            "byteLength" : 5046,
            "byteOffset" : 403008,
            "target" : 34963
        },
        {
            "buffer" : 0,
            "byteLength" : 258862,
            "byteOffset" : 408056
        },
        {
            "buffer" : 0,
            "byteLength" : 11472,
            "byteOffset" : 666920,
            "target" : 34962
        },
        {
            "buffer" : 0,
            "byteLength" : 11472,
            "byteOffset" : 678392,
            "target" : 34962
        },
        {
            "buffer" : 0,
            "byteLength" : 7648,
            "byteOffset" : 689864,
            "target" : 34962
        },
        {
            "buffer" : 0,
            "byteLength" : 5046,
            "byteOffset" : 697512,
            "target" : 34963
        },
        {
            "buffer" : 0,
            "byteLength" : 7104,
            "byteOffset" : 702560,
            "target" : 34962
        },
        {
            "buffer" : 0,
            "byteLength" : 7104,
            "byteOffset" : 709664,
            "target" : 34962
        },
        {
            "buffer" : 0,
            "byteLength" : 4736,
            "byteOffset" : 716768,
            "target" : 34962
        },
        {
            "buffer" : 0,
            "byteLength" : 2196,
            "byteOffset" : 721504,
            "target" : 34963
        },
        {
            "buffer" : 0,
            "byteLength" : 767,
            "byteOffset" : 723700
        }
    ],
    "samplers" : [
        {
            "magFilter" : 9729,
            "minFilter" : 9987
        }
    ],
    "buffers" : [
        {
            "byteLength" : 724468,
            "uri" : "data:application/octet-stream;base64,"
        }
    ]
}
